<svg width="60" height="54" viewBox="0 0 60 54" fill="none" xmlns="http://www.w3.org/2000/svg">
<path d="M8.90625 6.67981H6.09375V38.3204H8.90625V6.67981Z" fill="#65BC49"/>
<path d="M53.906 6.67981H51.0935V38.3204H53.906V6.67981Z" fill="#65BC49"/>
<path d="M8.90625 38.9532H6.09375C5.90727 38.9532 5.72843 38.8866 5.59657 38.7679C5.4647 38.6492 5.39063 38.4883 5.39062 38.3204V6.67981C5.39062 6.51198 5.4647 6.35102 5.59657 6.23234C5.72843 6.11367 5.90727 6.047 6.09375 6.047H8.90625C9.09273 6.047 9.27157 6.11367 9.40343 6.23234C9.5353 6.35102 9.60938 6.51198 9.60938 6.67981V38.3204C9.60938 38.4883 9.5353 38.6492 9.40343 38.7679C9.27157 38.8866 9.09273 38.9532 8.90625 38.9532ZM6.79688 37.6876H8.20312V7.31262H6.79688V37.6876Z" fill="#1C2D6B"/>
<path d="M53.9062 38.9532H51.0938C50.9073 38.9532 50.7284 38.8866 50.5966 38.7679C50.4647 38.6492 50.3906 38.4883 50.3906 38.3204V6.67981C50.3906 6.51198 50.4647 6.35102 50.5966 6.23234C50.7284 6.11367 50.9073 6.047 51.0938 6.047H53.9062C54.0927 6.047 54.2716 6.11367 54.4034 6.23234C54.5353 6.35102 54.6094 6.51198 54.6094 6.67981V38.3204C54.6094 38.4883 54.5353 38.6492 54.4034 38.7679C54.2716 38.8866 54.0927 38.9532 53.9062 38.9532V38.9532ZM51.7969 37.6876H53.2031V7.31262H51.7969V37.6876Z" fill="#1C2D6B"/>
<path d="M46.6898 6.67981V11.0652C46.6898 11.2448 46.6106 11.417 46.4695 11.544C46.3284 11.671 46.137 11.7423 45.9375 11.7423C46.642 11.7423 47.3176 11.4904 47.8157 11.0421C48.3138 10.5938 48.5937 9.98577 48.5937 9.35175V6.67981H46.6898Z" fill="#E8383B"/>
<path d="M45.1852 11.0652V6.67981H43.2813V9.35175C43.2813 9.98577 43.5612 10.5938 44.0593 11.0421C44.5574 11.4904 45.2331 11.7423 45.9375 11.7423V11.7423C45.8387 11.7423 45.7409 11.7248 45.6496 11.6908C45.5583 11.6567 45.4754 11.6069 45.4055 11.544C45.3357 11.4811 45.2802 11.4065 45.2424 11.3243C45.2046 11.2422 45.1852 11.1541 45.1852 11.0652Z" fill="#EF7F72"/>
<path d="M46.6898 11.0652V6.67981H45.1852V11.0652C45.1852 11.2448 45.2644 11.417 45.4055 11.544C45.5466 11.671 45.738 11.7423 45.9375 11.7423C46.137 11.7423 46.3284 11.671 46.4695 11.544C46.6106 11.417 46.6898 11.2448 46.6898 11.0652V11.0652Z" fill="#E95947"/>
<path d="M41.3773 6.67981V11.0652C41.3773 11.1541 41.3578 11.2422 41.32 11.3243C41.2822 11.4065 41.2268 11.4811 41.1569 11.544C41.087 11.6069 41.0041 11.6567 40.9128 11.6908C40.8215 11.7248 40.7237 11.7423 40.6249 11.7423C40.9737 11.7423 41.3192 11.6805 41.6415 11.5604C41.9637 11.4403 42.2566 11.2642 42.5033 11.0422C42.7499 10.8202 42.9456 10.5567 43.0791 10.2666C43.2126 9.97658 43.2813 9.6657 43.2813 9.35175V6.67981H41.3773Z" fill="#E8383B"/>
<path d="M39.8726 11.0652V6.67981H37.9688V9.35175C37.9688 9.98577 38.2486 10.5938 38.7467 11.0421C39.2449 11.4904 39.9205 11.7423 40.6249 11.7423V11.7423C40.4254 11.7423 40.234 11.671 40.0929 11.544C39.9518 11.417 39.8726 11.2448 39.8726 11.0652V11.0652Z" fill="#EF7F72"/>
<path d="M41.3772 11.0652V6.67981H39.8726V11.0652C39.8726 11.2448 39.9518 11.417 40.0929 11.544C40.234 11.671 40.4254 11.7423 40.6249 11.7423C40.8244 11.7423 41.0158 11.671 41.1569 11.544C41.298 11.417 41.3772 11.2448 41.3772 11.0652Z" fill="#E95947"/>
<path d="M36.0649 6.67981V11.0652C36.0649 11.2448 35.9857 11.417 35.8446 11.544C35.7035 11.671 35.5121 11.7423 35.3126 11.7423C36.0171 11.7423 36.6927 11.4904 37.1908 11.0421C37.6889 10.5938 37.9688 9.98577 37.9688 9.35175V6.67981H36.0649Z" fill="#E8383B"/>
<path d="M34.5602 11.0652V6.67981H32.6562V9.35175C32.6562 9.98579 32.9361 10.5938 33.4343 11.0421C33.9325 11.4905 34.6081 11.7423 35.3126 11.7423V11.7423C35.113 11.7423 34.9217 11.671 34.7806 11.544C34.6395 11.417 34.5602 11.2448 34.5602 11.0652V11.0652Z" fill="#EF7F72"/>
<path d="M36.0649 11.0652V6.67981H34.5602V11.0652C34.5602 11.2448 34.6395 11.417 34.7806 11.544C34.9217 11.671 35.1131 11.7423 35.3126 11.7423C35.5121 11.7423 35.7035 11.671 35.8446 11.544C35.9857 11.417 36.0649 11.2448 36.0649 11.0652Z" fill="#E95947"/>
<path d="M30.7523 6.67981V11.0652C30.7523 11.2448 30.6731 11.417 30.532 11.544C30.3909 11.671 30.1995 11.7423 30 11.7423C30.7045 11.7423 31.3801 11.4904 31.8782 11.0421C32.3763 10.5938 32.6562 9.98577 32.6562 9.35175V6.67981H30.7523Z" fill="#E8383B"/>
<path d="M29.2477 11.0652V6.67981H27.3438V9.35175C27.3438 9.98577 27.6237 10.5938 28.1218 11.0421C28.6199 11.4904 29.2956 11.7423 30 11.7423V11.7423C29.8005 11.7423 29.6091 11.671 29.468 11.544C29.3269 11.417 29.2477 11.2448 29.2477 11.0652V11.0652Z" fill="#EF7F72"/>
<path d="M30.7523 11.0652V6.67981H29.2477V11.0652C29.2477 11.2448 29.3269 11.417 29.468 11.544C29.6091 11.671 29.8005 11.7423 30 11.7423C30.1995 11.7423 30.3909 11.671 30.532 11.544C30.6731 11.417 30.7523 11.2448 30.7523 11.0652V11.0652Z" fill="#E95947"/>
<path d="M25.44 6.67981V11.0652C25.44 11.2448 25.3607 11.417 25.2196 11.544C25.0785 11.671 24.8872 11.7423 24.6877 11.7423C25.3921 11.7423 26.0677 11.4904 26.5659 11.0421C27.064 10.5938 27.3438 9.98577 27.3438 9.35175V6.67981H25.44Z" fill="#E8383B"/>
<path d="M23.9353 11.0652V6.67981H22.0312V9.35175C22.0312 9.98577 22.3111 10.5938 22.8092 11.0421C23.3074 11.4904 23.983 11.7423 24.6874 11.7423V11.7423C24.4879 11.7423 24.2966 11.6709 24.1556 11.5439C24.0145 11.4169 23.9353 11.2447 23.9353 11.0652V11.0652Z" fill="#EF7F72"/>
<path d="M25.44 11.0652V6.67981H23.9353V11.0652C23.9353 11.2448 24.0146 11.417 24.1557 11.544C24.2968 11.671 24.4881 11.7423 24.6876 11.7423C24.8872 11.7423 25.0785 11.671 25.2196 11.544C25.3607 11.417 25.44 11.2448 25.44 11.0652V11.0652Z" fill="#E95947"/>
<path d="M20.1274 6.67981V11.0652C20.1274 11.2448 20.0482 11.417 19.9071 11.544C19.766 11.671 19.5746 11.7423 19.3751 11.7423C20.0796 11.7423 20.7552 11.4904 21.2533 11.0421C21.7514 10.5938 22.0313 9.98577 22.0313 9.35175V6.67981H20.1274Z" fill="#E8383B"/>
<path d="M18.6227 11.0652V6.67981H16.7187V9.35175C16.7187 9.98579 16.9986 10.5938 17.4968 11.0421C17.995 11.4905 18.6706 11.7423 19.3751 11.7423V11.7423C19.1755 11.7423 18.9842 11.671 18.8431 11.544C18.702 11.417 18.6227 11.2448 18.6227 11.0652Z" fill="#EF7F72"/>
<path d="M20.1274 11.0652V6.67981H18.6227V11.0652C18.6227 11.2448 18.702 11.417 18.8431 11.544C18.9842 11.671 19.1756 11.7423 19.3751 11.7423C19.5746 11.7423 19.766 11.671 19.9071 11.544C20.0482 11.417 20.1274 11.2448 20.1274 11.0652V11.0652Z" fill="#E95947"/>
<path d="M14.8148 6.67981V11.0652C14.8148 11.2448 14.7356 11.417 14.5945 11.544C14.4534 11.671 14.262 11.7423 14.0625 11.7423C14.4113 11.7423 14.7568 11.6805 15.079 11.5604C15.4013 11.4403 15.6942 11.2642 15.9408 11.0422C16.1875 10.8202 16.3832 10.5567 16.5167 10.2666C16.6502 9.97658 16.7189 9.6657 16.7189 9.35175V6.67981H14.8148Z" fill="#E8383B"/>
<path d="M13.3102 11.0652V6.67981H11.4063V9.35175C11.4063 9.98577 11.6862 10.5938 12.1843 11.0421C12.6824 11.4904 13.3581 11.7423 14.0625 11.7423V11.7423C13.863 11.7423 13.6716 11.671 13.5305 11.544C13.3894 11.417 13.3102 11.2448 13.3102 11.0652V11.0652Z" fill="#EF7F72"/>
<path d="M14.8148 11.0652V6.67981H13.3102V11.0652C13.3102 11.2448 13.3894 11.417 13.5305 11.544C13.6716 11.671 13.863 11.7423 14.0625 11.7423C14.262 11.7423 14.4534 11.671 14.5945 11.544C14.7356 11.417 14.8148 11.2448 14.8148 11.0652V11.0652Z" fill="#E95947"/>
<path d="M14.0625 12.3751C13.1719 12.3742 12.318 12.0553 11.6882 11.4885C11.0584 10.9216 10.7042 10.1531 10.7032 9.35154V6.67981C10.7032 6.51198 10.7773 6.35102 10.9092 6.23234C11.041 6.11367 11.2199 6.047 11.4063 6.047H16.7189C16.9054 6.047 17.0842 6.11367 17.2161 6.23234C17.348 6.35102 17.422 6.51198 17.422 6.67981V9.35154C17.421 10.1532 17.0667 10.9217 16.4369 11.4885C15.8071 12.0553 14.9532 12.3742 14.0625 12.3751V12.3751ZM12.1095 7.31262V9.35154C12.1066 9.58401 12.1551 9.81467 12.252 10.0302C12.3488 10.2457 12.4923 10.4417 12.6739 10.607C12.8556 10.7723 13.0718 10.9035 13.3102 10.9931C13.5486 11.0826 13.8043 11.1288 14.0626 11.1288C14.3209 11.1288 14.5767 11.0826 14.8151 10.9931C15.0534 10.9035 15.2697 10.7723 15.4514 10.607C15.633 10.4417 15.7764 10.2457 15.8733 10.0302C15.9702 9.81467 16.0186 9.58401 16.0158 9.35154V7.31262H12.1095Z" fill="#1C2D6B"/>
<path d="M9.5025 6.67981V11.0652C9.5025 11.2448 9.42323 11.417 9.28214 11.544C9.14105 11.671 8.94969 11.7423 8.75015 11.7423C9.09897 11.7423 9.44436 11.6805 9.76663 11.5603C10.0889 11.4402 10.3817 11.2641 10.6284 11.0421C10.875 10.8201 11.0707 10.5566 11.2041 10.2666C11.3376 9.97655 11.4063 9.66569 11.4063 9.35175V6.67981H9.5025Z" fill="#E8383B"/>
<path d="M7.99781 11.0652V6.67981H6.09375V9.35175C6.09375 9.6657 6.16246 9.97658 6.29596 10.2666C6.42946 10.5567 6.62513 10.8202 6.87181 11.0422C7.11848 11.2642 7.41132 11.4403 7.73361 11.5604C8.0559 11.6805 8.40132 11.7423 8.75016 11.7423V11.7423C8.55062 11.7423 8.35926 11.671 8.21817 11.544C8.07708 11.417 7.99781 11.2448 7.99781 11.0652V11.0652Z" fill="#EF7F72"/>
<path d="M9.50249 11.0652V6.67981H7.9978V11.0652C7.9978 11.2448 8.07707 11.417 8.21816 11.544C8.35925 11.671 8.55061 11.7423 8.75015 11.7423C8.94968 11.7423 9.14104 11.671 9.28213 11.544C9.42323 11.417 9.50249 11.2448 9.50249 11.0652V11.0652Z" fill="#E95947"/>
<path d="M8.74992 12.3751C7.85926 12.3742 7.00539 12.0553 6.37562 11.4885C5.74585 10.9216 5.39162 10.1531 5.39062 9.35154V6.67981C5.39062 6.51198 5.4647 6.35102 5.59657 6.23234C5.72843 6.11367 5.90727 6.047 6.09375 6.047H11.4063C11.5928 6.047 11.7717 6.11367 11.9035 6.23234C12.0354 6.35102 12.1095 6.51198 12.1095 6.67981V9.35154C12.1084 10.1532 11.7541 10.9217 11.1243 11.4885C10.4945 12.0553 9.6406 12.3742 8.74992 12.3751V12.3751ZM6.79688 7.31262V9.35154C6.79405 9.58401 6.84248 9.81467 6.93936 10.0302C7.03625 10.2457 7.17967 10.4417 7.36132 10.607C7.54297 10.7723 7.75924 10.9035 7.99761 10.9931C8.23599 11.0826 8.49173 11.1288 8.75004 11.1288C9.00835 11.1288 9.26409 11.0826 9.50247 10.9931C9.74084 10.9035 9.95711 10.7723 10.1388 10.607C10.3204 10.4417 10.4638 10.2457 10.5607 10.0302C10.6576 9.81467 10.706 9.58401 10.7032 9.35154V7.31262H6.79688Z" fill="#1C2D6B"/>
<path d="M19.3751 12.3751C18.4844 12.3742 17.6305 12.0553 17.0007 11.4885C16.3709 10.9217 16.0166 10.1532 16.0155 9.35154V6.67981C16.0155 6.51198 16.0896 6.35102 16.2215 6.23234C16.3533 6.11367 16.5322 6.047 16.7187 6.047H22.0312C22.2177 6.047 22.3966 6.11367 22.5284 6.23234C22.6603 6.35102 22.7344 6.51198 22.7344 6.67981V9.35154C22.7334 10.1531 22.3791 10.9216 21.7494 11.4885C21.1196 12.0553 20.2657 12.3742 19.3751 12.3751V12.3751ZM17.4218 7.31262V9.35154C17.419 9.58401 17.4674 9.81467 17.5643 10.0302C17.6612 10.2457 17.8046 10.4417 17.9862 10.607C18.1679 10.7723 18.3841 10.9035 18.6225 10.9931C18.8609 11.0826 19.1166 11.1288 19.3749 11.1288C19.6333 11.1288 19.889 11.0826 20.1274 10.9931C20.3657 10.9035 20.582 10.7723 20.7637 10.607C20.9453 10.4417 21.0887 10.2457 21.1856 10.0302C21.2825 9.81467 21.3309 9.58401 21.3281 9.35154V7.31262H17.4218Z" fill="#1C2D6B"/>
<path d="M24.6874 12.3751C23.7968 12.3742 22.9429 12.0553 22.3131 11.4885C21.6834 10.9216 21.3291 10.1531 21.3281 9.35154V6.67981C21.3281 6.51198 21.4022 6.35102 21.5341 6.23234C21.6659 6.11367 21.8448 6.047 22.0313 6.047H27.3438C27.5303 6.047 27.7092 6.11367 27.841 6.23234C27.9729 6.35102 28.047 6.51198 28.047 6.67981V9.35154C28.0459 10.1532 27.6916 10.9217 27.0618 11.4885C26.432 12.0553 25.5781 12.3742 24.6874 12.3751V12.3751ZM22.7344 7.31262V9.35154C22.7315 9.58401 22.78 9.81467 22.8769 10.0302C22.9737 10.2457 23.1172 10.4417 23.2988 10.607C23.4805 10.7723 23.6967 10.9035 23.9351 10.9931C24.1735 11.0826 24.4292 11.1288 24.6875 11.1288C24.9458 11.1288 25.2016 11.0826 25.44 10.9931C25.6783 10.9035 25.8946 10.7723 26.0763 10.607C26.2579 10.4417 26.4013 10.2457 26.4982 10.0302C26.5951 9.81467 26.6435 9.58401 26.6407 9.35154V7.31262H22.7344Z" fill="#1C2D6B"/>
<path d="M30 12.3751C29.1094 12.3742 28.2555 12.0553 27.6257 11.4885C26.9959 10.9216 26.6417 10.1531 26.6407 9.35154V6.67981C26.6407 6.51198 26.7148 6.35102 26.8467 6.23234C26.9785 6.11367 27.1574 6.047 27.3438 6.047H32.6562C32.8427 6.047 33.0215 6.11367 33.1534 6.23234C33.2852 6.35102 33.3593 6.51198 33.3593 6.67981V9.35154C33.3583 10.1531 33.0041 10.9216 32.3743 11.4885C31.7445 12.0553 30.8907 12.3742 30 12.3751V12.3751ZM28.047 7.31262V9.35154C28.047 9.81773 28.2527 10.2648 28.619 10.5945C28.9853 10.9241 29.482 11.1093 30 11.1093C30.518 11.1093 31.0148 10.9241 31.381 10.5945C31.7473 10.2648 31.9531 9.81773 31.9531 9.35154V7.31262H28.047Z" fill="#1C2D6B"/>
<path d="M35.3126 12.3751C34.4219 12.3742 33.568 12.0553 32.9382 11.4885C32.3084 10.9217 31.9541 10.1532 31.953 9.35154V6.67981C31.953 6.51198 32.0271 6.35102 32.159 6.23234C32.2908 6.11367 32.4697 6.047 32.6562 6.047H37.9687C38.1552 6.047 38.3341 6.11367 38.4659 6.23234C38.5978 6.35102 38.6719 6.51198 38.6719 6.67981V9.35154C38.6709 10.1531 38.3166 10.9216 37.6869 11.4885C37.0571 12.0553 36.2032 12.3742 35.3126 12.3751ZM33.3593 7.31262V9.35154C33.3565 9.58401 33.4049 9.81467 33.5018 10.0302C33.5987 10.2457 33.7421 10.4417 33.9237 10.607C34.1054 10.7723 34.3216 10.9035 34.56 10.9931C34.7984 11.0826 35.0541 11.1288 35.3125 11.1288C35.5708 11.1288 35.8265 11.0826 36.0649 10.9931C36.3033 10.9035 36.5195 10.7723 36.7012 10.607C36.8828 10.4417 37.0262 10.2457 37.1231 10.0302C37.22 9.81467 37.2684 9.58401 37.2656 9.35154V7.31262H33.3593Z" fill="#1C2D6B"/>
<path d="M40.6249 12.3751C39.7343 12.3742 38.8804 12.0553 38.2506 11.4885C37.6209 10.9216 37.2666 10.1531 37.2656 9.35154V6.67981C37.2656 6.51198 37.3397 6.35102 37.4716 6.23234C37.6034 6.11367 37.7823 6.047 37.9688 6.047H43.2813C43.4678 6.047 43.6467 6.11367 43.7785 6.23234C43.9104 6.35102 43.9845 6.51198 43.9845 6.67981V9.35154C43.9834 10.1532 43.6291 10.9217 42.9993 11.4885C42.3695 12.0553 41.5156 12.3742 40.6249 12.3751V12.3751ZM38.6719 7.31262V9.35154C38.669 9.58401 38.7175 9.81467 38.8144 10.0302C38.9112 10.2457 39.0547 10.4417 39.2363 10.607C39.418 10.7723 39.6342 10.9035 39.8726 10.9931C40.111 11.0826 40.3667 11.1288 40.625 11.1288C40.8833 11.1288 41.1391 11.0826 41.3775 10.9931C41.6158 10.9035 41.8321 10.7723 42.0138 10.607C42.1954 10.4417 42.3388 10.2457 42.4357 10.0302C42.5326 9.81467 42.581 9.58401 42.5782 9.35154V7.31262H38.6719Z" fill="#1C2D6B"/>
<path d="M45.9375 12.3751C45.0469 12.3742 44.193 12.0553 43.5632 11.4885C42.9334 10.9216 42.5792 10.1531 42.5782 9.35154V6.67981C42.5782 6.51198 42.6523 6.35102 42.7842 6.23234C42.916 6.11367 43.0949 6.047 43.2813 6.047H48.5937C48.7802 6.047 48.959 6.11367 49.0909 6.23234C49.2227 6.35102 49.2968 6.51198 49.2968 6.67981V9.35154C49.2958 10.1531 48.9416 10.9216 48.3118 11.4885C47.682 12.0553 46.8282 12.3742 45.9375 12.3751V12.3751ZM43.9845 7.31262V9.35154C43.9845 9.81773 44.1902 10.2648 44.5565 10.5945C44.9228 10.9241 45.4195 11.1093 45.9375 11.1093C46.4555 11.1093 46.9523 10.9241 47.3185 10.5945C47.6848 10.2648 47.8906 9.81773 47.8906 9.35154V7.31262H43.9845Z" fill="#1C2D6B"/>
<path d="M52.0024 6.67981V11.0652C52.0024 11.2448 51.9232 11.417 51.7821 11.544C51.641 11.671 51.4496 11.7423 51.2501 11.7423C51.9546 11.7423 52.6302 11.4904 53.1283 11.0421C53.6264 10.5938 53.9063 9.98577 53.9063 9.35175V6.67981H52.0024Z" fill="#E8383B"/>
<path d="M50.4977 11.0652V6.67981H48.5937V9.35175C48.5937 9.6657 48.6624 9.97658 48.7959 10.2666C48.9294 10.5567 49.125 10.8202 49.3717 11.0422C49.6184 11.2642 49.9112 11.4403 50.2335 11.5604C50.5558 11.6805 50.9012 11.7423 51.2501 11.7423V11.7423C51.0505 11.7423 50.8592 11.671 50.7181 11.544C50.577 11.417 50.4977 11.2448 50.4977 11.0652V11.0652Z" fill="#EF7F72"/>
<path d="M52.0024 11.0652V6.67981H50.4977V11.0652C50.4977 11.2448 50.577 11.417 50.7181 11.544C50.8592 11.671 51.0506 11.7423 51.2501 11.7423C51.4496 11.7423 51.641 11.671 51.7821 11.544C51.9232 11.417 52.0024 11.2448 52.0024 11.0652V11.0652Z" fill="#E95947"/>
<path d="M51.2501 12.3751C50.3594 12.3742 49.5055 12.0553 48.8757 11.4885C48.2459 10.9217 47.8916 10.1532 47.8905 9.35154V6.67981C47.8905 6.51198 47.9646 6.35102 48.0965 6.23234C48.2283 6.11367 48.4072 6.047 48.5937 6.047H53.9062C54.0927 6.047 54.2716 6.11367 54.4034 6.23234C54.5353 6.35102 54.6094 6.51198 54.6094 6.67981V9.35154C54.6084 10.1531 54.2541 10.9216 53.6244 11.4885C52.9946 12.0553 52.1407 12.3742 51.2501 12.3751V12.3751ZM49.2968 7.31262V9.35154C49.294 9.58401 49.3424 9.81467 49.4393 10.0302C49.5362 10.2457 49.6796 10.4417 49.8612 10.607C50.0429 10.7723 50.2591 10.9035 50.4975 10.9931C50.7359 11.0826 50.9916 11.1288 51.25 11.1288C51.5083 11.1288 51.764 11.0826 52.0024 10.9931C52.2408 10.9035 52.457 10.7723 52.6387 10.607C52.8203 10.4417 52.9637 10.2457 53.0606 10.0302C53.1575 9.81467 53.2059 9.58401 53.2031 9.35154V7.31262H49.2968Z" fill="#1C2D6B"/>
<path d="M20.1562 38.3204H6.09375V43.3829H20.1562V38.3204Z" fill="#EDE49D"/>
<path d="M53.9062 38.3204H39.8438V43.3829H53.9062V38.3204Z" fill="#D3BA2A"/>
<path d="M39.8438 38.3204H20.1562V43.3829H39.8438V38.3204Z" fill="#EEE045"/>
<path d="M53.9062 44.0157H6.09375C5.90727 44.0157 5.72843 43.9491 5.59657 43.8304C5.4647 43.7117 5.39063 43.5508 5.39062 43.3829V38.3204C5.39062 38.1526 5.4647 37.9916 5.59657 37.873C5.72843 37.7543 5.90727 37.6876 6.09375 37.6876H53.9062C54.0927 37.6876 54.2716 37.7543 54.4034 37.873C54.5353 37.9916 54.6094 38.1526 54.6094 38.3204V43.3829C54.6094 43.5508 54.5353 43.7117 54.4034 43.8304C54.2716 43.9491 54.0927 44.0157 53.9062 44.0157V44.0157ZM6.79688 42.7501H53.2031V38.9532H6.79688V42.7501Z" fill="#1C2D6B"/>
<path d="M26.7188 7.94543C27.5182 7.94543 28.1663 9.92825 28.1663 12.3751C28.1663 14.822 27.5182 16.8048 26.7188 16.8048C28.0241 16.8048 29.276 16.3381 30.199 15.5074C31.1221 14.6767 31.6406 13.5499 31.6406 12.3751C31.6406 11.2003 31.1221 10.0736 30.199 9.24286C29.276 8.41213 28.0241 7.94543 26.7188 7.94543V7.94543Z" fill="#4B67B0"/>
<path d="M25.2712 12.3751C25.2712 9.92825 25.9193 7.94543 26.7188 7.94543C25.4134 7.94543 24.1615 8.41213 23.2385 9.24286C22.3154 10.0736 21.7969 11.2003 21.7969 12.3751C21.7969 13.5499 22.3154 14.6767 23.2385 15.5074C24.1615 16.3381 25.4134 16.8048 26.7188 16.8048C25.9193 16.8048 25.2712 14.8216 25.2712 12.3751Z" fill="#89AADB"/>
<path d="M26.7187 16.8048C27.5182 16.8048 28.1662 14.8216 28.1662 12.3751C28.1662 9.92867 27.5182 7.94543 26.7187 7.94543C25.9193 7.94543 25.2712 9.92867 25.2712 12.3751C25.2712 14.8216 25.9193 16.8048 26.7187 16.8048Z" fill="#6287C5"/>
<path d="M28.8476 19.3678L28.5338 19.3654L28.8305 19.3735C28.8363 19.3737 28.842 19.3688 28.8476 19.3678Z" fill="#6287C5"/>
<path d="M27.112 23.4727C27.0981 23.2852 27.0546 23.1006 26.9827 22.9242L25.3453 19.3429L24.7303 19.3387C24.4789 19.3369 24.2347 19.2624 24.034 19.1261L17.4881 14.6837C17.308 14.5615 17.171 14.3951 17.0934 14.2044C17.0158 14.0138 17.001 13.807 17.0508 13.609L18.4734 7.94492C18.6183 7.4586 18.5425 6.94042 18.2628 6.50437C17.9831 6.06832 17.5225 5.75011 16.9821 5.61976V5.61976C16.7145 5.55522 16.4355 5.53875 16.1608 5.57129C15.8862 5.60383 15.6213 5.68473 15.3814 5.80939C15.1415 5.93404 14.9313 6.1 14.7626 6.2978C14.594 6.49559 14.4703 6.72134 14.3986 6.96216L12.8407 12.8882C12.6414 13.6462 12.6792 14.4391 12.9498 15.1789C13.2204 15.9188 13.7134 16.5768 14.374 17.08L23.3327 22.923C23.54 23.0582 23.6924 23.2508 23.7666 23.4714L25.7813 29.461L20.0494 39.586L19.1353 45.8232C19.0493 46.428 19.2315 47.0389 19.6424 47.5237C20.0532 48.0086 20.6598 48.3282 21.3306 48.4135C22.0014 48.4988 22.6826 48.3428 23.2266 47.9794C23.7706 47.616 24.1337 47.0744 24.2372 46.4718L25.3132 40.0382L26.1783 38.553L27.7134 29.4603L27.112 23.4727Z" fill="#89AADB"/>
<path d="M40.3488 5.98197C40.069 5.85393 39.7609 5.78374 39.447 5.7765C39.1332 5.76926 38.8215 5.82517 38.5347 5.94013C38.248 6.05509 37.9933 6.22622 37.7894 6.44103C37.5854 6.65583 37.4373 6.9089 37.3559 7.18178L35.0721 14.8289L31.0619 18.438L29.6934 22.5815C29.5866 22.9647 29.5623 23.3628 29.6217 23.7543L30.4638 29.4722C30.5855 30.3334 30.6154 31.2031 30.5531 32.0695L29.5062 46.8155C29.4504 47.6006 29.2507 48.1994 29.0016 48.3848C29.2997 48.4516 29.6096 48.4637 29.913 48.4204C30.2164 48.3771 30.507 48.2794 30.7676 48.1329C31.0282 47.9865 31.2533 47.7944 31.4297 47.5681C31.6061 47.3418 31.7301 47.0858 31.7944 46.8155L35.3053 32.0695C35.513 31.1969 35.408 30.2876 35.0053 29.4722L32.1818 23.7543C32.0857 23.5598 32.0573 23.3437 32.1003 23.1343C32.1432 22.925 32.2556 22.7323 32.4225 22.5815L37.9791 17.5641C38.5581 17.0413 38.9747 16.3909 39.187 15.6779L41.4305 8.16854C41.5564 7.74771 41.5177 7.30068 41.3208 6.90252C41.1238 6.50435 40.7806 6.17931 40.3488 5.98197V5.98197Z" fill="#4B67B0"/>
<path d="M29.5062 46.815L30.5531 32.069C30.6154 31.2027 30.5855 30.333 30.4638 29.4718L29.6217 23.7539C29.5623 23.3624 29.5867 22.9643 29.6934 22.5811L31.062 18.4376L30.3666 19.0635C30.2567 19.1624 30.126 19.2406 29.9822 19.2936C29.8384 19.3466 29.6843 19.3734 29.5289 19.3723L28.8476 19.3674C28.842 19.3674 28.8363 19.3725 28.8305 19.3723L28.5338 19.3653L25.3463 19.343L26.9836 22.9245C27.0555 23.1008 27.0991 23.2855 27.113 23.4729L27.7137 29.4612L26.1785 38.5539L30 31.9923L27.3127 45.9506C27.1882 46.4742 27.2949 47.0209 27.61 47.475C27.9252 47.9292 28.4242 48.2553 29.0016 48.3844C29.25 48.1992 29.4504 47.6002 29.5062 46.815Z" fill="#6287C5"/>
<path d="M26.7188 17.4376C25.6062 17.4376 24.5187 17.1407 23.5937 16.5844C22.6686 16.0282 21.9477 15.2375 21.5219 14.3125C21.0962 13.3874 20.9848 12.3695 21.2018 11.3875C21.4189 10.4055 21.9546 9.5034 22.7413 8.7954C23.5279 8.08739 24.5302 7.60524 25.6214 7.4099C26.7125 7.21456 27.8435 7.31482 28.8713 7.69798C29.8992 8.08115 30.7777 8.73003 31.3958 9.56255C32.0139 10.3951 32.3438 11.3739 32.3438 12.3751C32.3421 13.7173 31.7489 15.0041 30.6944 15.9532C29.6399 16.9023 28.2101 17.4361 26.7188 17.4376V17.4376ZM26.7188 8.57825C25.8844 8.57825 25.0687 8.80093 24.3749 9.21814C23.6812 9.63534 23.1404 10.2283 22.8211 10.9221C22.5018 11.6159 22.4183 12.3793 22.5811 13.1159C22.7438 13.8524 23.1456 14.5289 23.7356 15.0599C24.3256 15.5909 25.0774 15.9525 25.8957 16.099C26.7141 16.2455 27.5623 16.1704 28.3332 15.883C29.1041 15.5956 29.763 15.1089 30.2265 14.4846C30.6901 13.8602 30.9375 13.1261 30.9375 12.3751C30.9362 11.3685 30.4913 10.4034 29.7004 9.69162C28.9095 8.97982 27.8372 8.57942 26.7188 8.57825Z" fill="#1C2D6B"/>
<path d="M29.5547 49.0782C29.1094 49.0783 28.6696 48.989 28.2675 48.8168C27.8653 48.6446 27.511 48.3938 27.2301 48.0827C26.9493 47.7717 26.7491 47.4082 26.6441 47.0187C26.5391 46.6292 26.5319 46.2235 26.6231 45.8312L28.5431 35.8575L25.9903 40.2384L24.9316 46.5665C24.8009 47.3344 24.3391 48.0249 23.6463 48.4883C22.9536 48.9517 22.0858 49.1507 21.2312 49.042C20.3765 48.9334 19.6039 48.5259 19.0809 47.9079C18.5579 47.29 18.3267 46.5113 18.4373 45.7409L19.3514 39.5035C19.3618 39.4323 19.3856 39.3632 19.4217 39.2991L25.0252 29.4011L23.0927 23.6564C23.0629 23.5683 23.0019 23.4913 22.9191 23.4372L13.9612 17.5922C13.9472 17.5827 13.9331 17.573 13.9198 17.5628C13.1577 16.9858 12.5892 16.2293 12.2778 15.378C11.9664 14.5266 11.9244 13.6141 12.1566 12.7425L13.7145 6.81516C13.8061 6.49181 13.9678 6.18796 14.1904 5.92109C14.413 5.65422 14.692 5.42959 15.0114 5.26012C15.3308 5.09066 15.6843 4.97971 16.0515 4.93365C16.4188 4.88759 16.7925 4.90734 17.1512 4.99175C17.5099 5.07616 17.8465 5.22358 18.1417 5.42551C18.4369 5.62744 18.6848 5.87991 18.8711 6.16839C19.0575 6.45687 19.1786 6.77567 19.2276 7.10644C19.2766 7.43721 19.2524 7.77343 19.1564 8.09576L17.7366 13.7489C17.7167 13.8281 17.7226 13.9108 17.7537 13.9871C17.7847 14.0633 17.8396 14.1299 17.9116 14.1788L24.4575 18.6213C24.5379 18.6755 24.6355 18.705 24.7359 18.7057L29.5345 18.7392C29.5968 18.7403 29.6586 18.7298 29.7162 18.7086C29.7738 18.6873 29.8259 18.6557 29.8695 18.6156L34.4421 14.5005L36.6766 7.01724C36.8704 6.36882 37.3424 5.81622 37.9888 5.481C38.6352 5.14578 39.4031 5.0554 40.1236 5.22975C40.8441 5.4041 41.4581 5.8289 41.8305 6.41068C42.203 6.99247 42.3034 7.68359 42.1097 8.33201L39.8672 15.8414C39.6227 16.6611 39.1438 17.4088 38.4783 18.01L32.9217 23.0272C32.8553 23.0877 32.8106 23.1648 32.7934 23.2485C32.7762 23.3322 32.7874 23.4186 32.8254 23.4965L35.6484 29.2148C36.1139 30.152 36.2346 31.1984 35.9932 32.2017L32.482 46.9475C32.3359 47.5492 31.9663 48.0882 31.4341 48.4755C30.902 48.8628 30.2391 49.0754 29.5547 49.0782V49.0782ZM30 31.3594C30.1025 31.3594 30.2037 31.3796 30.2967 31.4185C30.3896 31.4574 30.4719 31.5142 30.5379 31.5847C30.6039 31.6553 30.652 31.738 30.6788 31.8271C30.7055 31.9161 30.7103 32.0093 30.6928 32.1002L28.0055 46.0588C28.0038 46.067 28.0022 46.0751 28.0003 46.0833C27.9555 46.2673 27.9514 46.4574 27.9885 46.6428C28.0255 46.8282 28.1029 47.0051 28.2161 47.1635C28.3294 47.3219 28.4763 47.4586 28.6484 47.5657C28.8206 47.6728 29.0145 47.7483 29.2192 47.7877C29.4238 47.8272 29.6351 47.8299 29.8409 47.7956C30.0467 47.7614 30.2429 47.6909 30.4183 47.5882C30.5937 47.4854 30.7449 47.3525 30.8631 47.1971C30.9812 47.0416 31.0641 46.8667 31.107 46.6823L34.6172 31.9359C34.7956 31.1943 34.7064 30.4208 34.3624 29.728L31.5391 24.011C31.3869 23.6994 31.3423 23.3537 31.411 23.019C31.4797 22.6842 31.6586 22.3758 31.9245 22.1337L37.481 17.1165C37.973 16.672 38.327 16.1193 38.5078 15.5134L40.7515 8.004C40.8483 7.67978 40.7981 7.33421 40.6118 7.04332C40.4256 6.75242 40.1186 6.54003 39.7583 6.45287C39.3981 6.36571 39.0141 6.41092 38.6909 6.57855C38.3677 6.74618 38.1317 7.0225 38.0348 7.34672L35.7513 14.9934C35.7192 15.1005 35.6565 15.1981 35.5695 15.2765L30.8639 19.5117C30.5063 19.8283 30.0249 20.0058 29.5233 20.0059L24.7249 19.9724C24.3226 19.9688 23.9322 19.8496 23.6105 19.6321L17.0648 15.189C16.777 14.9931 16.558 14.7268 16.4339 14.4218C16.3098 14.1169 16.2859 13.7862 16.365 13.4694L17.7891 7.80467C17.7909 7.79644 17.793 7.78842 17.7956 7.78041C17.8876 7.45746 17.8343 7.1149 17.6472 6.82713C17.4602 6.53936 17.1546 6.32963 16.7967 6.2435C16.4389 6.15737 16.0577 6.20179 15.736 6.36713C15.4144 6.53246 15.1782 6.80535 15.0787 7.1265L13.5251 13.0347C13.3544 13.6751 13.384 14.3455 13.6106 14.9717C13.8372 15.598 14.252 16.1555 14.809 16.5826L23.7452 22.4121C24.0765 22.6288 24.3202 22.9368 24.4395 23.2894L26.4539 29.2781C26.5064 29.4345 26.4896 29.6032 26.407 29.7487L20.7305 39.7765L19.8316 45.9061C19.768 46.3463 19.8999 46.7913 20.1986 47.1445C20.4973 47.4977 20.9388 47.7307 21.4272 47.7928C21.9156 47.8548 22.4114 47.741 22.8072 47.4761C23.2029 47.2111 23.4665 46.8164 23.5409 46.3775L24.6171 39.9439C24.6289 39.8743 24.6534 39.8068 24.6898 39.7444L29.3773 31.6978C29.4369 31.5956 29.5265 31.5101 29.6362 31.4505C29.746 31.3909 29.8718 31.3594 30 31.3594V31.3594Z" fill="#1C2D6B"/>
<path d="M41.4743 25.0314C41.4743 23.9828 41.6887 23.1329 41.9531 23.1329C41.3937 23.1329 40.8572 23.3329 40.4616 23.689C40.066 24.045 39.8438 24.5279 39.8438 25.0314C39.8438 25.5349 40.066 26.0177 40.4616 26.3738C40.8572 26.7298 41.3937 26.9298 41.9531 26.9298C41.6887 26.9298 41.4743 26.0799 41.4743 25.0314Z" fill="#89AADB"/>
<path d="M41.9531 23.1329C42.2175 23.1329 42.432 23.9828 42.432 25.0314C42.432 26.0799 42.2175 26.9298 41.9531 26.9298C42.5126 26.9298 43.0491 26.7298 43.4447 26.3738C43.8403 26.0177 44.0625 25.5349 44.0625 25.0314C44.0625 24.5279 43.8403 24.045 43.4447 23.689C43.0491 23.3329 42.5126 23.1329 41.9531 23.1329Z" fill="#4B67B0"/>
<path d="M41.9531 26.9298C42.2176 26.9298 42.432 26.0799 42.432 25.0314C42.432 23.9829 42.2176 23.1329 41.9531 23.1329C41.6887 23.1329 41.4743 23.9829 41.4743 25.0314C41.4743 26.0799 41.6887 26.9298 41.9531 26.9298Z" fill="#6287C5"/>
<path d="M41.9531 27.5626C41.3969 27.5626 40.8531 27.4142 40.3906 27.136C39.9281 26.8579 39.5676 26.4626 39.3547 26C39.1418 25.5375 39.0861 25.0286 39.1947 24.5376C39.3032 24.0465 39.5711 23.5955 39.9644 23.2415C40.3577 22.8875 40.8589 22.6464 41.4044 22.5488C41.95 22.4511 42.5155 22.5012 43.0294 22.6928C43.5433 22.8844 43.9826 23.2088 44.2916 23.6251C44.6007 24.0413 44.7656 24.5307 44.7656 25.0314C44.7648 25.7025 44.4682 26.3459 43.941 26.8204C43.4137 27.295 42.6988 27.5619 41.9531 27.5626V27.5626ZM41.9531 23.7657C41.675 23.7657 41.4031 23.84 41.1719 23.979C40.9406 24.1181 40.7604 24.3158 40.6539 24.547C40.5475 24.7783 40.5196 25.0328 40.5739 25.2783C40.6282 25.5238 40.7621 25.7493 40.9588 25.9263C41.1554 26.1033 41.406 26.2238 41.6788 26.2727C41.9516 26.3215 42.2343 26.2964 42.4913 26.2007C42.7482 26.1049 42.9679 25.9426 43.1224 25.7345C43.2769 25.5264 43.3594 25.2817 43.3594 25.0314C43.359 24.6958 43.2107 24.3741 42.9471 24.1368C42.6834 23.8995 42.326 23.7661 41.9531 23.7657V23.7657Z" fill="#1C2D6B"/>
<path d="M44.0625 25.6642C43.876 25.6642 43.6972 25.5975 43.5653 25.4788C43.4335 25.3602 43.3594 25.1992 43.3594 25.0314V18.0704C43.3594 17.9026 43.4335 17.7416 43.5653 17.623C43.6972 17.5043 43.876 17.4376 44.0625 17.4376C44.249 17.4376 44.4278 17.5043 44.5597 17.623C44.6915 17.7416 44.7656 17.9026 44.7656 18.0704V25.0314C44.7656 25.1992 44.6915 25.3602 44.5597 25.4788C44.4278 25.5975 44.249 25.6642 44.0625 25.6642Z" fill="#1C2D6B"/>
<path d="M45.2384 18.0704H44.0625V20.2553H45.2384V18.0704Z" fill="#89AADB"/>
<path d="M46.875 18.0704H45.6992V20.2553H46.875V18.0704Z" fill="#4B67B0"/>
<path d="M45.6994 18.0704H45.2383V20.2553H45.6994V18.0704Z" fill="#6287C5"/>
<path d="M46.875 20.8881H44.0625C43.876 20.8881 43.6972 20.8215 43.5653 20.7028C43.4335 20.5841 43.3594 20.4232 43.3594 20.2553V18.0704C43.3594 17.9026 43.4335 17.7416 43.5653 17.623C43.6972 17.5043 43.876 17.4376 44.0625 17.4376H46.875C47.0615 17.4376 47.2403 17.5043 47.3722 17.623C47.504 17.7416 47.5781 17.9026 47.5781 18.0704V20.2553C47.5781 20.4232 47.504 20.5841 47.3722 20.7028C47.2403 20.8215 47.0615 20.8881 46.875 20.8881V20.8881ZM44.7656 19.6225H46.1719V18.7032H44.7656V19.6225Z" fill="#1C2D6B"/>
<path d="M9.13055 32.6251C9.13055 31.5766 9.345 30.7267 9.60938 30.7267C9.04993 30.7267 8.51341 30.9267 8.11782 31.2827C7.72224 31.6387 7.5 32.1216 7.5 32.6251C7.5 33.1286 7.72224 33.6115 8.11782 33.9675C8.51341 34.3235 9.04993 34.5236 9.60938 34.5236C9.345 34.5236 9.13055 33.6737 9.13055 32.6251Z" fill="#EF7F72"/>
<path d="M9.60938 30.7267C9.87375 30.7267 10.0882 31.5766 10.0882 32.6251C10.0882 33.6737 9.87375 34.5236 9.60938 34.5236C10.1688 34.5236 10.7053 34.3235 11.1009 33.9675C11.4965 33.6115 11.7188 33.1286 11.7188 32.6251C11.7188 32.1216 11.4965 31.6387 11.1009 31.2827C10.7053 30.9267 10.1688 30.7267 9.60938 30.7267Z" fill="#E8383B"/>
<path d="M9.60938 34.5236C9.87383 34.5236 10.0882 33.6736 10.0882 32.6251C10.0882 31.5766 9.87383 30.7267 9.60938 30.7267C9.34493 30.7267 9.13055 31.5766 9.13055 32.6251C9.13055 33.6736 9.34493 34.5236 9.60938 34.5236Z" fill="#E95947"/>
<path d="M16.1618 32.6251C16.1618 31.5766 16.3762 30.7267 16.6406 30.7267C16.0812 30.7267 15.5447 30.9267 15.1491 31.2827C14.7535 31.6387 14.5312 32.1216 14.5312 32.6251C14.5312 33.1286 14.7535 33.6115 15.1491 33.9675C15.5447 34.3235 16.0812 34.5236 16.6406 34.5236C16.3762 34.5236 16.1618 33.6737 16.1618 32.6251Z" fill="#EF7F72"/>
<path d="M16.6406 30.7267C16.905 30.7267 17.1195 31.5766 17.1195 32.6251C17.1195 33.6737 16.905 34.5236 16.6406 34.5236C17.2001 34.5236 17.7366 34.3235 18.1322 33.9675C18.5278 33.6115 18.75 33.1286 18.75 32.6251C18.75 32.1216 18.5278 31.6387 18.1322 31.2827C17.7366 30.9267 17.2001 30.7267 16.6406 30.7267Z" fill="#E8383B"/>
<path d="M16.6406 34.5236C16.9051 34.5236 17.1195 33.6736 17.1195 32.6251C17.1195 31.5766 16.9051 30.7267 16.6406 30.7267C16.3762 30.7267 16.1618 31.5766 16.1618 32.6251C16.1618 33.6736 16.3762 34.5236 16.6406 34.5236Z" fill="#E95947"/>
<path d="M9.60938 35.1564C9.05312 35.1564 8.50935 35.0079 8.04683 34.7298C7.58432 34.4516 7.22384 34.0563 7.01097 33.5938C6.79809 33.1313 6.7424 32.6223 6.85092 32.1313C6.95944 31.6403 7.2273 31.1893 7.62064 30.8353C8.01397 30.4813 8.51511 30.2402 9.06068 30.1425C9.60626 30.0448 10.1718 30.095 10.6857 30.2866C11.1996 30.4781 11.6388 30.8026 11.9479 31.2188C12.2569 31.6351 12.4219 32.1245 12.4219 32.6251C12.4211 33.2962 12.1245 33.9396 11.5972 34.4142C11.07 34.8887 10.355 35.1556 9.60938 35.1564V35.1564ZM9.60938 31.3595C9.33125 31.3595 9.05936 31.4337 8.82811 31.5728C8.59685 31.7119 8.41661 31.9095 8.31017 32.1408C8.20373 32.3721 8.17589 32.6265 8.23015 32.872C8.28441 33.1175 8.41834 33.3431 8.61501 33.5201C8.81167 33.6971 9.06224 33.8176 9.33503 33.8664C9.60782 33.9153 9.89057 33.8902 10.1475 33.7944C10.4045 33.6986 10.6241 33.5364 10.7786 33.3283C10.9332 33.1201 11.0156 32.8754 11.0156 32.6251C11.0153 32.2896 10.867 31.9678 10.6033 31.7306C10.3397 31.4933 9.98222 31.3598 9.60938 31.3595Z" fill="#1C2D6B"/>
<path d="M11.7188 33.2579C11.5323 33.2579 11.3534 33.1913 11.2216 33.0726C11.0897 32.9539 11.0156 32.793 11.0156 32.6251V25.6642C11.0156 25.4964 11.0897 25.3354 11.2216 25.2167C11.3534 25.098 11.5323 25.0314 11.7188 25.0314C11.9052 25.0314 12.0841 25.098 12.2159 25.2167C12.3478 25.3354 12.4219 25.4964 12.4219 25.6642V32.6251C12.4219 32.793 12.3478 32.9539 12.2159 33.0726C12.0841 33.1913 11.9052 33.2579 11.7188 33.2579V33.2579Z" fill="#1C2D6B"/>
<path d="M16.6406 35.1564C16.0844 35.1564 15.5406 35.0079 15.0781 34.7298C14.6156 34.4516 14.2551 34.0563 14.0422 33.5938C13.8293 33.1313 13.7736 32.6223 13.8822 32.1313C13.9907 31.6403 14.2586 31.1893 14.6519 30.8353C15.0452 30.4813 15.5464 30.2402 16.0919 30.1425C16.6375 30.0448 17.203 30.095 17.7169 30.2866C18.2308 30.4781 18.6701 30.8026 18.9791 31.2188C19.2882 31.6351 19.4531 32.1245 19.4531 32.6251C19.4523 33.2962 19.1557 33.9396 18.6285 34.4142C18.1012 34.8887 17.3863 35.1556 16.6406 35.1564V35.1564ZM16.6406 31.3595C16.3625 31.3595 16.0906 31.4337 15.8594 31.5728C15.6281 31.7119 15.4479 31.9095 15.3414 32.1408C15.235 32.3721 15.2071 32.6265 15.2614 32.872C15.3157 33.1175 15.4496 33.3431 15.6463 33.5201C15.8429 33.6971 16.0935 33.8176 16.3663 33.8664C16.6391 33.9153 16.9218 33.8902 17.1788 33.7944C17.4357 33.6986 17.6554 33.5364 17.8099 33.3283C17.9644 33.1201 18.0469 32.8754 18.0469 32.6251C18.0465 32.2896 17.8982 31.9678 17.6346 31.7306C17.3709 31.4933 17.0135 31.3598 16.6406 31.3595V31.3595Z" fill="#1C2D6B"/>
<path d="M18.75 33.2579C18.5635 33.2579 18.3847 33.1913 18.2528 33.0726C18.121 32.9539 18.0469 32.793 18.0469 32.6251V25.6642C18.0469 25.4964 18.121 25.3354 18.2528 25.2167C18.3847 25.098 18.5635 25.0314 18.75 25.0314C18.9365 25.0314 19.1153 25.098 19.2472 25.2167C19.379 25.3354 19.4531 25.4964 19.4531 25.6642V32.6251C19.4531 32.793 19.379 32.9539 19.2472 33.0726C19.1153 33.1913 18.9365 33.2579 18.75 33.2579Z" fill="#1C2D6B"/>
<path d="M14.307 25.6642H11.7188V28.2657H14.307V25.6642Z" fill="#EF7F72"/>
<path d="M18.75 25.6642H16.1618V28.2657H18.75V25.6642Z" fill="#E8383B"/>
<path d="M16.1618 25.6642H14.3069V28.2657H16.1618V25.6642Z" fill="#E95947"/>
<path d="M18.75 28.8985H11.7188C11.5323 28.8985 11.3534 28.8318 11.2216 28.7131C11.0897 28.5945 11.0156 28.4335 11.0156 28.2657V25.6642C11.0156 25.4964 11.0897 25.3354 11.2216 25.2167C11.3534 25.098 11.5323 25.0314 11.7188 25.0314H18.75C18.9365 25.0314 19.1153 25.098 19.2472 25.2167C19.379 25.3354 19.4531 25.4964 19.4531 25.6642V28.2657C19.4531 28.4335 19.379 28.5945 19.2472 28.7131C19.1153 28.8318 18.9365 28.8985 18.75 28.8985ZM12.4219 27.6329H18.0469V26.297H12.4219V27.6329Z" fill="#1C2D6B"/>
<path d="M42.432 32.6251C42.432 33.6737 42.2175 34.5236 41.9531 34.5236C42.5126 34.5236 43.0491 34.3235 43.4447 33.9675C43.8403 33.6115 44.0625 33.1286 44.0625 32.6251C44.0625 32.1216 43.8403 31.6387 43.4447 31.2827C43.0491 30.9267 42.5126 30.7267 41.9531 30.7267C42.2175 30.7267 42.432 31.5774 42.432 32.6251Z" fill="#419B46"/>
<path d="M41.9531 34.5236C41.6887 34.5236 41.4743 33.6737 41.4743 32.6251C41.4743 31.5766 41.6887 30.7267 41.9531 30.7267C41.3937 30.7267 40.8572 30.9267 40.4616 31.2827C40.066 31.6387 39.8438 32.1216 39.8438 32.6251C39.8438 33.1286 40.066 33.6115 40.4616 33.9675C40.8572 34.3235 41.3937 34.5236 41.9531 34.5236Z" fill="#A4D4A0"/>
<path d="M41.9531 34.5236C42.2176 34.5236 42.432 33.6736 42.432 32.6251C42.432 31.5766 42.2176 30.7267 41.9531 30.7267C41.6887 30.7267 41.4743 31.5766 41.4743 32.6251C41.4743 33.6736 41.6887 34.5236 41.9531 34.5236Z" fill="#65BC49"/>
<path d="M39.8438 37.4011H38.6679V39.586H39.8438V37.4011Z" fill="#419B46"/>
<path d="M38.2071 37.4011H37.0312V39.586H38.2071V37.4011Z" fill="#A4D4A0"/>
<path d="M38.6681 37.4011H38.2071V39.586H38.6681V37.4011Z" fill="#65BC49"/>
<path d="M41.9531 35.1564C41.3969 35.1564 40.8531 35.0079 40.3906 34.7298C39.9281 34.4516 39.5676 34.0563 39.3547 33.5938C39.1418 33.1313 39.0861 32.6223 39.1947 32.1313C39.3032 31.6403 39.5711 31.1893 39.9644 30.8353C40.3577 30.4813 40.8589 30.2402 41.4044 30.1425C41.95 30.0448 42.5155 30.095 43.0294 30.2866C43.5433 30.4781 43.9826 30.8026 44.2916 31.2188C44.6007 31.6351 44.7656 32.1245 44.7656 32.6251C44.7648 33.2962 44.4682 33.9396 43.941 34.4142C43.4137 34.8887 42.6988 35.1556 41.9531 35.1564V35.1564ZM41.9531 31.3595C41.675 31.3595 41.4031 31.4337 41.1719 31.5728C40.9406 31.7119 40.7604 31.9095 40.6539 32.1408C40.5475 32.3721 40.5196 32.6265 40.5739 32.872C40.6282 33.1175 40.7621 33.3431 40.9588 33.5201C41.1554 33.6971 41.406 33.8176 41.6788 33.8664C41.9516 33.9153 42.2343 33.8902 42.4913 33.7944C42.7482 33.6986 42.9679 33.5364 43.1224 33.3283C43.2769 33.1201 43.3594 32.8754 43.3594 32.6251C43.359 32.2896 43.2107 31.9678 42.9471 31.7306C42.6834 31.4933 42.326 31.3598 41.9531 31.3595V31.3595Z" fill="#1C2D6B"/>
<path d="M39.8438 40.2189C39.6573 40.2189 39.4784 40.1522 39.3466 40.0335C39.2147 39.9148 39.1406 39.7539 39.1406 39.5861V32.6251C39.1406 32.4573 39.2147 32.2963 39.3466 32.1777C39.4784 32.059 39.6573 31.9923 39.8438 31.9923C40.0302 31.9923 40.2091 32.059 40.3409 32.1777C40.4728 32.2963 40.5469 32.4573 40.5469 32.6251V39.5861C40.5469 39.7539 40.4728 39.9148 40.3409 40.0335C40.2091 40.1522 40.0302 40.2189 39.8438 40.2189Z" fill="#1C2D6B"/>
<path d="M39.8438 40.2188H37.0312C36.8448 40.2188 36.6659 40.1522 36.5341 40.0335C36.4022 39.9148 36.3281 39.7538 36.3281 39.586V37.4011C36.3281 37.2333 36.4022 37.0723 36.5341 36.9537C36.6659 36.835 36.8448 36.7683 37.0312 36.7683H39.8438C40.0302 36.7683 40.2091 36.835 40.3409 36.9537C40.4728 37.0723 40.5469 37.2333 40.5469 37.4011V39.586C40.5469 39.7538 40.4728 39.9148 40.3409 40.0335C40.2091 40.1522 40.0302 40.2188 39.8438 40.2188ZM37.7344 38.9532H39.1406V38.0339H37.7344V38.9532Z" fill="#1C2D6B"/>
</svg>
