<svg width="70" height="70" viewBox="0 0 70 70" fill="none" xmlns="http://www.w3.org/2000/svg">
<g clip-path="url(#clip0_15_2296)">
<path d="M33.9062 63.9844C50.5179 63.9844 63.9844 50.5179 63.9844 33.9062C63.9844 17.2946 50.5179 3.82812 33.9062 3.82812C17.2946 3.82812 3.82812 17.2946 3.82812 33.9062C3.82812 50.5179 17.2946 63.9844 33.9062 63.9844Z" fill="#A9A7F3"/>
<path d="M34.7375 12.0203C34.3016 11.509 33.5109 11.509 33.075 12.0203C29.9206 15.7237 18.8672 29.3634 18.8672 38.6597C18.8672 49.5037 25.6003 55.1091 33.9062 55.1091C42.2122 55.1091 48.9453 49.5037 48.9453 38.6597C48.9453 29.3634 37.8919 15.7237 34.7375 12.0203Z" fill="#0089EF"/>
<path d="M50.5356 58.3138C49.3812 59.1019 48.1616 59.8128 46.9109 60.4275C46.6397 60.5609 46.5281 60.8885 46.661 61.1592C46.7562 61.3528 46.9503 61.4649 47.1521 61.4649C47.233 61.4649 47.3151 61.4469 47.3927 61.4086C48.6899 60.7715 49.9548 60.0337 51.1519 59.2173C51.4019 59.0466 51.4658 58.7065 51.2958 58.4571C51.1251 58.2077 50.7844 58.1437 50.5356 58.3138Z" fill="#3A2C60"/>
<g filter="url(#filter0_d_15_2296)">
<path d="M33.9062 3.28125C17.0198 3.28125 3.28125 17.0198 3.28125 33.9062C3.28125 50.7927 17.0198 64.5312 33.9062 64.5312C37.783 64.5312 41.562 63.8165 45.1369 62.4061C45.418 62.2951 45.5558 61.9779 45.4448 61.6968C45.3337 61.4163 45.0177 61.2784 44.7355 61.3889C41.2891 62.7484 37.6452 63.4375 33.9062 63.4375C17.6225 63.4375 4.375 50.19 4.375 33.9062C4.375 17.6225 17.6225 4.375 33.9062 4.375C50.19 4.375 63.4375 17.6225 63.4375 33.9062C63.4375 42.9559 59.372 51.3822 52.2834 57.0243C52.0472 57.2124 52.0078 57.5564 52.1959 57.7927C52.3841 58.0289 52.7286 58.0677 52.9643 57.8802C60.3154 52.0291 64.5312 43.2912 64.5312 33.9062C64.5312 17.0198 50.7927 3.28125 33.9062 3.28125Z" fill="#A9A7F3"/>
<path d="M33.9062 3.78125C17.296 3.78125 3.78125 17.296 3.78125 33.9062C3.78125 50.5165 17.296 64.0312 33.9062 64.0312C37.7208 64.0312 41.4373 63.3281 44.9532 61.941C44.9778 61.9313 44.9892 61.9044 44.9797 61.8805L33.9062 3.78125ZM33.9062 3.78125C50.5165 3.78125 64.0312 17.296 64.0312 33.9062C64.0312 43.1386 59.885 51.7327 52.6529 57.4889C52.6332 57.5046 52.6032 57.5014 52.5871 57.4812C52.5714 57.4614 52.5742 57.4319 52.5949 57.4154C59.8025 51.6786 63.9375 43.1084 63.9375 33.9062C63.9375 17.3464 50.4661 3.875 33.9062 3.875C17.3464 3.875 3.875 17.3464 3.875 33.9062C3.875 50.4661 17.3464 63.9375 33.9062 63.9375C37.7072 63.9375 41.4131 63.2369 44.9183 61.8543L33.9062 3.78125Z" stroke="#2359A9"/>
</g>
<path d="M35.1537 11.6659C34.842 11.3001 34.3875 11.0901 33.9062 11.0901C33.425 11.0901 32.9705 11.3001 32.6588 11.6659C29.295 15.6144 18.3203 29.231 18.3203 38.6597C18.3203 48.9842 24.4382 55.656 33.9062 55.656C43.3743 55.656 49.4922 48.9847 49.4922 38.6597C49.4922 29.231 38.5175 15.6144 35.1537 11.6659ZM33.9062 54.5623C25.1027 54.5623 19.4141 48.3202 19.4141 38.6597C19.4141 29.6045 30.1891 16.2515 33.4912 12.3747C33.5962 12.2511 33.7438 12.1833 33.9062 12.1833C34.0687 12.1833 34.2158 12.2517 34.3213 12.3747C37.6234 16.2515 48.3984 29.6045 48.3984 38.6597C48.3984 48.3202 42.7098 54.5623 33.9062 54.5623Z" fill="#3A2C60"/>
<path d="M41.7199 49.0109C41.5996 49.0109 41.4793 48.9716 41.3782 48.8906C41.1424 48.7019 41.1042 48.3574 41.2934 48.1223C41.7035 47.6093 42.0798 47.0564 42.4101 46.4773C42.56 46.2153 42.8941 46.124 43.156 46.2738C43.418 46.4237 43.5093 46.7573 43.3595 47.0198C43.0007 47.6476 42.5928 48.2491 42.1465 48.8059C42.0388 48.9404 41.8802 49.0109 41.7199 49.0109Z" fill="#D4FBFF"/>
<path d="M44.2892 43.8813C44.241 43.8813 44.1924 43.8747 44.1437 43.8616C43.8522 43.7817 43.681 43.4804 43.7614 43.1895C44.1782 41.6746 44.3892 40.0105 44.3892 38.243C44.3892 36.5274 43.9315 34.5138 43.0286 32.258C42.916 31.9774 43.0527 31.6591 43.3332 31.547C43.6143 31.4349 43.9321 31.5711 44.0442 31.8516C44.999 34.2377 45.483 36.388 45.483 38.243C45.483 40.1084 45.2582 41.8704 44.8158 43.4798C44.7496 43.7221 44.5292 43.8813 44.2892 43.8813Z" fill="#D4FBFF"/>
</g>
<defs>
<filter id="filter0_d_15_2296" x="-0.71875" y="3.28125" width="69.25" height="69.25" filterUnits="userSpaceOnUse" color-interpolation-filters="sRGB">
<feFlood flood-opacity="0" result="BackgroundImageFix"/>
<feColorMatrix in="SourceAlpha" type="matrix" values="0 0 0 0 0 0 0 0 0 0 0 0 0 0 0 0 0 0 127 0" result="hardAlpha"/>
<feOffset dy="4"/>
<feGaussianBlur stdDeviation="2"/>
<feComposite in2="hardAlpha" operator="out"/>
<feColorMatrix type="matrix" values="0 0 0 0 0 0 0 0 0 0 0 0 0 0 0 0 0 0 0.25 0"/>
<feBlend mode="normal" in2="BackgroundImageFix" result="effect1_dropShadow_15_2296"/>
<feBlend mode="normal" in="SourceGraphic" in2="effect1_dropShadow_15_2296" result="shape"/>
</filter>
<clipPath id="clip0_15_2296">
<rect width="70" height="70" fill="white"/>
</clipPath>
</defs>
</svg>
